/* XPM */
static char *result[] = {
/* columns rows colors chars-per-pixel */
"16 16 195 2 ",
"   c #000312",
".  c #000315",
"X  c #000417",
"o  c #00051A",
"O  c #000317",
"+  c #000B2A",
"@  c #00133C",
"#  c #00051F",
"$  c #000520",
"%  c #00051E",
"&  c #000726",
"*  c #000620",
"=  c #00041A",
"-  c #000314",
";  c #00143E",
":  c #002860",
">  c #001948",
",  c #00103A",
"<  c #000833",
"1  c #000E43",
"2  c #00103E",
"3  c #000931",
"4  c #000625",
"5  c #000D30",
"6  c #000C2A",
"7  c #000518",
"8  c #00041B",
"9  c #003E8E",
"0  c #003DA4",
"q  c #003792",
"w  c #003383",
"e  c #02479A",
"r  c #076DC0",
"t  c #003783",
"y  c #00082D",
"u  c #000523",
"i  c #000E31",
"p  c #000725",
"a  c #031E58",
"s  c #021D54",
"d  c #001849",
"f  c #004198",
"g  c #002078",
"h  c #002592",
"j  c #1093F0",
"k  c #24C4F2",
"l  c #002F85",
"z  c #000C3C",
"x  c #032569",
"c  c #000C37",
"v  c #00133F",
"b  c #1D83CE",
"n  c #0E559C",
"m  c #000428",
"M  c #00143F",
"N  c #003B93",
"B  c #00238C",
"V  c #0257D3",
"C  c #056FD9",
"Z  c #002366",
"A  c #001044",
"S  c #073B8F",
"D  c #001042",
"F  c #000623",
"G  c #00051D",
"H  c #001A42",
"J  c #0360C5",
"K  c #0148B4",
"L  c #002762",
"P  c #000728",
"I  c #00357F",
"U  c #002887",
"Y  c #001276",
"T  c #002E94",
"R  c #002B66",
"E  c #000626",
"W  c #000624",
"Q  c #00397B",
"!  c #00379A",
"~  c #003997",
"^  c #003E91",
"/  c #003793",
"(  c #000E52",
")  c #000A4C",
"_  c #001E6C",
"`  c #00397C",
"'  c #00072C",
"]  c #00092D",
"[  c #000A2C",
"{  c #001A4C",
"}  c #000E33",
"|  c #004A9E",
" . c #001C6F",
".. c #001763",
"X. c #000E5C",
"o. c #001265",
"O. c #000C52",
"+. c #001056",
"@. c #00429C",
"#. c #002257",
"$. c #000C47",
"%. c #000D40",
"&. c #00092B",
"*. c #000C30",
"=. c #000621",
"-. c #000522",
";. c #002559",
":. c #0046A2",
">. c #00196E",
",. c #013DB0",
"<. c #066BDE",
"1. c #002591",
"2. c #00094B",
"3. c #001966",
"4. c #0048A8",
"5. c #0A67C1",
"6. c #053E96",
"7. c #000A35",
"8. c #000521",
"9. c #000932",
"0. c #00235A",
"q. c #004392",
"w. c #088DDC",
"e. c #1FBDF6",
"r. c #0054BE",
"t. c #002882",
"y. c #00094A",
"u. c #00176F",
"i. c #0F7DD2",
"p. c #0962B4",
"a. c #000B3E",
"s. c #00082C",
"d. c #000A30",
"f. c #000C39",
"g. c #013685",
"h. c #03418E",
"j. c #001755",
"k. c #003A87",
"l. c #00338E",
"z. c #000C54",
"x. c #001872",
"c. c #0039A7",
"v. c #0E61B4",
"b. c #021645",
"n. c #00041C",
"m. c #002564",
"M. c #00205F",
"N. c #000727",
"B. c #001C53",
"V. c #000E3C",
"C. c #000A3F",
"Z. c #000B37",
"A. c #021D60",
"S. c #003C8B",
"D. c #00409B",
"F. c #00105A",
"G. c #001472",
"H. c #0A55C6",
"J. c #023A85",
"K. c #00061F",
"L. c #000519",
"P. c #000E35",
"I. c #000D38",
"U. c #001449",
"Y. c #0750A7",
"T. c #011D67",
"R. c #053A8F",
"E. c #011245",
"W. c #0044A5",
"Q. c #0133A7",
"!. c #001984",
"~. c #003891",
"^. c #000E2C",
"/. c #000416",
"(. c #001138",
"). c #001041",
"_. c #06367F",
"`. c #011145",
"'. c #000A32",
"]. c #000A36",
"[. c #00256A",
"{. c #0C7FE1",
"}. c #0255C3",
"|. c #003681",
" X c #00081F",
".X c #000925",
"XX c #000A2A",
"oX c #000527",
"OX c #000933",
"+X c #01246A",
"@X c #001E4D",
"#X c #000A24",
"$X c #000415",
"%X c #00051B",
"&X c white",
/* pixels */
"  . X o O + @ # $ % & * = X -   ",
"- X o ; : > , < 1 2 3 4 5 6 X . ",
"7 8 $ 9 0 q w e r t y u , i o X ",
"p a s d f g h j k l z x c $ % o ",
"v b n m M N B V C Z A S D F $ G ",
"H J K L P I U Y T R E y P & W % ",
"$ Q ! ~ ^ / ( ) _ ` ' ] & [ { F ",
"# } |  ...X.o.O.+.@.#.$.%.&.*.=.",
"$ -.;.:.>.,.<.1.2.3.4.5.6.7.W 8.",
"% W 9.0.q.w.e.r.t.y.u.i.p.a.4 # ",
"G s.d.4 f.g.h.j.k.l.z.x.c.v.b.n.",
"n.m.M.N.B.V.C.Z.A.S.D.F.G.H.J.K.",
"L.P.I.W ] U.Y.T.R.E.R W.Q.!.~.^.",
"/.7 n.i (.)._.`.'.].E [.{.}.|. X",
"- X o .XXXF oX& W & F OX+X@X#X. ",
"  $X7 o %XG # =.$ % G %X8 . -   "
};
