/* XPM */
static char *result[] = {
/* columns rows colors chars-per-pixel */
"16 16 236 2 ",
"   c #1C1D1D",
".  c #1E1F1F",
"X  c #222222",
"o  c #232323",
"O  c #232324",
"+  c #232525",
"@  c #242525",
"#  c #38211B",
"$  c #3E221A",
"%  c gray15",
"&  c #242627",
"*  c #252525",
"=  c gray11",
"-  c #1F1515",
";  c #291717",
":  c #242222",
">  c #2E2621",
",  c #43231B",
"<  c #521C12",
"1  c #A94307",
"2  c #B84906",
"3  c #571D11",
"4  c #46221A",
"5  c #312621",
"6  c #252627",
"7  c #2A1818",
"8  c #201616",
"9  c #221D1D",
"0  c #3A0F0F",
"q  c #490F0F",
"w  c #41201A",
"e  c #582113",
"r  c #805732",
"t  c #58472E",
"y  c #7E3211",
"u  c #92370F",
"i  c #5A4930",
"p  c #7E5834",
"a  c #572113",
"s  c #451F17",
"d  c #4B0E0E",
"f  c #3B0F0F",
"g  c #211C1C",
"h  c #242121",
"j  c #5C0F08",
"k  c #841607",
"l  c #32211E",
"z  c #7A7344",
"x  c #ADA56E",
"c  c #B68B63",
"v  c #C48F63",
"b  c #BBB375",
"n  c #726C3C",
"m  c #30211F",
"M  c #841508",
"N  c #671007",
"B  c #242020",
"V  c #252626",
"C  c #2B2524",
"Z  c #62170A",
"A  c #830504",
"S  c #6D2D1B",
"D  c #A39C5E",
"F  c #DFD8A1",
"G  c #E5D3C4",
"H  c #DFC8B7",
"J  c #F0E9AF",
"K  c #9B9357",
"L  c #712E1C",
"P  c #800404",
"I  c #621609",
"U  c #2F2321",
"Y  c #262727",
"T  c #252728",
"R  c #3E201B",
"E  c #44130E",
"W  c #620304",
"Q  c #884521",
"!  c #B1A967",
"~  c #F8F1BA",
"^  c #E8DFD9",
"/  c #E3D8D3",
"(  c #E0DBAF",
")  c #B9B16F",
"_  c #91512A",
"`  c #590304",
"'  c #3C1410",
"]  c #441E17",
"[  c #531D12",
"{  c #412C1C",
"}  c #4C0F0A",
"|  c #7A5730",
" . c #C8C17E",
".. c #F3EAA9",
"X. c #949484",
"o. c #8B8B82",
"O. c #CEC796",
"+. c #C5BE7E",
"@. c #7A5A32",
"#. c #480E09",
"$. c #3B2C1E",
"%. c #541B10",
"&. c #262424",
"*. c #38221B",
"=. c #A94207",
"-. c #A04E1C",
";. c #763315",
":. c #5B4128",
">. c #5D5440",
",. c #CBC492",
"<. c #47493C",
"1. c #424438",
"2. c #C9C290",
"3. c #5D5642",
"4. c #594128",
"5. c #713214",
"6. c #94481B",
"7. c #AE4405",
"8. c #452418",
"9. c #3C1F17",
"0. c #BD4E07",
"q. c #C15E1F",
"w. c #7F3B14",
"e. c #705635",
"r. c #241F1F",
"t. c #6C6C5D",
"y. c #545547",
"u. c #525247",
"i. c #686957",
"p. c #745C3B",
"a. c #713716",
"s. c #B95B22",
"d. c #C55207",
"f. c #4B2314",
"g. c #222220",
"h. c #6A2F18",
"j. c #A38649",
"k. c #9B6C20",
"l. c #84672D",
"z. c #595538",
"x. c #41443F",
"c. c #B4AD87",
"v. c #B5AE85",
"b. c #43453D",
"n. c #605D40",
"m. c #836935",
"M. c #8D601D",
"N. c #A28D4E",
"B. c #71331A",
"V. c #26211F",
"C. c #212324",
"Z. c #4F2016",
"A. c #A16B32",
"S. c #C69831",
"D. c #C6841C",
"F. c #9C7833",
"G. c #948F66",
"H. c #BEAF7F",
"J. c #BCAB7C",
"K. c #A39F76",
"L. c #A98741",
"P. c #C5831D",
"I. c #C6942F",
"U. c #A57436",
"Y. c #582416",
"T. c #232526",
"R. c #202223",
"E. c #4E1C16",
"W. c #A62D08",
"Q. c #B55214",
"!. c #A83F11",
"~. c #8E5325",
"^. c #B3AB6A",
"/. c #A8936F",
"(. c #9D8466",
"). c #905526",
"_. c #A94011",
"`. c #B75314",
"'. c #A63009",
"]. c #4F1E17",
"[. c #212222",
"{. c #291F1F",
"}. c #6B170D",
"|. c #861A09",
" X c #420A09",
".X c #2A2017",
"XX c #6D673B",
"oX c #97724C",
"OX c #8B5E3D",
"+X c #6D683D",
"@X c #2A1F17",
"#X c #430908",
"$X c #8B1B0A",
"%X c #6F1B0F",
"&X c #2C2222",
"*X c gray12",
"=X c #212223",
"-X c #31241A",
";X c #772D0C",
":X c #591407",
">X c #2A110E",
",X c #30291B",
"<X c #A25926",
"1X c #AB4F1C",
"2X c #32291B",
"3X c #300E0C",
"4X c #5C1207",
"5X c #7A2C0D",
"6X c #3B2A1B",
"7X c #242526",
"8X c #1D1D1D",
"9X c #202021",
"0X c #33281D",
"qX c #533717",
"wX c #241512",
"eX c #39130D",
"rX c #51180C",
"tX c #B24806",
"yX c #C54C03",
"uX c #661306",
"iX c #53120B",
"pX c #31201D",
"aX c #4F3619",
"sX c #3B2C1B",
"dX c #222223",
"fX c #202020",
"gX c #222323",
"hX c #222324",
"jX c #202121",
"kX c #1D1F1F",
"lX c #22201F",
"zX c #412015",
"xX c #4D2113",
"cX c #371110",
"vX c #271B1B",
"bX c white",
/* pixels */
"  . X o O + @ # $ % & % * o . = ",
"- ; : & > , < 1 2 3 4 5 6 : 7 8 ",
"9 0 q w e r t y u i p a s d f g ",
"* h j k l z x c v b n m M N B * ",
"V C Z A S D F G H J K L P I U Y ",
"T R E W Q ! ~ ^ / ( ) _ ` ' ] & ",
"V [ { } |  ...X.o.O.+.@.#.$.%.&.",
"*.=.-.;.:.>.,.<.1.2.3.4.5.6.7.8.",
"9.0.q.w.e.r.t.y.u.i.B p.a.s.d.f.",
"g.h.j.k.l.z.x.c.v.b.n.m.M.N.B.V.",
"C.Z.A.S.D.F.G.H.J.K.L.P.I.U.Y.T.",
"R.E.W.Q.!.~.^./.(.b )._.`.'.].T.",
"[.{.}.|. X.XXXoXOX+X@X#X$X%X&X@ ",
"*X=X-X;X:X>X,X<X1X2X3X4X5X6X7Xo ",
"8X9X0XqXwXeXrXtXyXuXiXpXaXsXdXfX",
"= fXgXhXjXkXlXzXxXcXvX+ [.9X*X8X"
};
