/* XPM */
static char *result[] = {
/* columns rows colors chars-per-pixel */
"16 16 200 2 ",
"   c #3B1624",
".  c #3B1625",
"X  c #3B1725",
"o  c #381E27",
"O  c #3B1A29",
"+  c #3B1B29",
"@  c #381F2A",
"#  c #3B1E2A",
"$  c #382027",
"%  c #3C2129",
"&  c #3C2229",
"*  c #3C222F",
"=  c #3A2037",
"-  c #3E3D36",
";  c #323F38",
":  c #2F4536",
">  c #205F3B",
",  c #1A783B",
"<  c #197C38",
"1  c #3F3945",
"2  c #3E355A",
"3  c #40354F",
"4  c #403151",
"5  c #403252",
"6  c #403352",
"7  c #403353",
"8  c #403454",
"9  c #403856",
"0  c #413D55",
"q  c #413D59",
"w  c #314240",
"e  c #2A504C",
"r  c #305144",
"t  c #2B495D",
"y  c #3E415B",
"u  c #265B59",
"i  c #1E7A40",
"p  c #276F47",
"a  c #25735A",
"s  c #285760",
"d  c #3A447E",
"f  c #3D4A7B",
"g  c #26587D",
"h  c #3D626C",
"j  c #387167",
"k  c #435268",
"l  c #465C6B",
"z  c #455D71",
"x  c #44626D",
"c  c #44636F",
"v  c #45686F",
"b  c #4F786F",
"n  c #14982F",
"m  c #149E2F",
"M  c #188A37",
"N  c #168338",
"B  c #178738",
"V  c #188A3F",
"C  c #169033",
"Z  c #159332",
"A  c #169333",
"S  c #159931",
"D  c #14A12E",
"F  c #25A13E",
"G  c #37825B",
"H  c #28A049",
"J  c #3DAA5B",
"K  c #21887B",
"L  c #488779",
"P  c #2F4683",
"I  c #364381",
"U  c #344C86",
"Y  c #275683",
"T  c #2E5285",
"R  c #314891",
"E  c #226692",
"W  c #306290",
"Q  c #285AAF",
"!  c #375EAA",
"~  c #295ABE",
"^  c #2375A1",
"/  c #3173AE",
"(  c #3065B9",
")  c #386DB9",
"_  c #435991",
"`  c #496A83",
"'  c #4B768B",
"]  c #4E6B96",
"[  c #4B7392",
"{  c #4D7692",
"}  c #4F7E9B",
"|  c #517395",
" . c #4370A8",
".. c #4772AF",
"X. c #517FA4",
"o. c #275AC0",
"O. c #265EC5",
"+. c #275EC5",
"@. c #295BC1",
"#. c #2959C2",
"$. c #285CC4",
"%. c #295CC4",
"&. c #285DC5",
"*. c #285CC7",
"=. c #2663C6",
"-. c #2861C6",
";. c #276CCD",
":. c #286BC9",
">. c #396DC4",
",. c #386FC9",
"<. c #2675CE",
"1. c #4175C3",
"2. c #4273C5",
"3. c #24A28D",
"4. c #239AA7",
"5. c #2388B3",
"6. c #49808D",
"7. c #5E8887",
"8. c #52868A",
"9. c #5F9282",
"0. c #5D908F",
"q. c #4D819F",
"w. c #488EAB",
"e. c #5E84A6",
"r. c #5088A5",
"t. c #5686A9",
"y. c #5A85B0",
"u. c #5989BB",
"i. c #628EB7",
"p. c #238CC8",
"a. c #3A87C5",
"s. c #368BCA",
"d. c #2A82D0",
"f. c #2B81D3",
"g. c #2E97D8",
"h. c #239FDE",
"j. c #239FDF",
"k. c #259FDE",
"l. c #279FDF",
"z. c #2CA2DF",
"x. c #249FE1",
"c. c #2EA1E0",
"v. c #37A5E1",
"b. c #3DA5E3",
"n. c #5284C6",
"m. c #4F8BD2",
"M. c #738FC5",
"N. c #6191CF",
"B. c #689EDF",
"V. c #4CA6D8",
"C. c #4FA1DD",
"Z. c #4BACD8",
"A. c #54AADD",
"S. c #70AFC6",
"D. c #7DBAC1",
"F. c #40A7E3",
"G. c #46A7E5",
"H. c #49A7E5",
"J. c #40A9E4",
"K. c #48A8E5",
"L. c #52AAE7",
"P. c #59AEE8",
"I. c #5FAFE9",
"U. c #69AAE2",
"Y. c #6EB4EC",
"T. c #71B3E8",
"R. c #71B4EC",
"E. c #74B9EC",
"W. c #74BAED",
"Q. c #95A5BA",
"!. c #91A7CA",
"~. c #89BBEF",
"^. c #9EB9E2",
"/. c #A4BFE3",
"(. c #ABC7CF",
"). c #83C0EF",
"_. c #90C1F2",
"`. c #9EC1F5",
"'. c #BCC7E0",
"]. c #B2C9EF",
"[. c #A7CBF7",
"{. c #A7CEF5",
"}. c #B0CAF3",
"|. c #B2CCF9",
" X c #B5D1F8",
".X c #B8D2F8",
"XX c #C1CCEA",
"oX c #CCD2EE",
"OX c #C7D4F2",
"+X c #CED5F1",
"@X c #CBD6F4",
"#X c #C6D6FB",
"$X c #CED8F9",
"%X c #D5DCF9",
"&X c #D8DFF9",
"*X c #DBE1FE",
"=X c #DCE1FF",
"-X c #E3E6FF",
";X c #E5E7FF",
":X c None",
/* pixels */
":X:X:X:X:XD S Z V ^ *.:X:X:X:X:X",
":X:X:Xm n C < p a p.<.-.@.:X:X:X",
":X:XJ M G 7.b Q.w.g.a.:.#.d :X:X",
":X;X(.9.'.oXXX#XE.).B./ E _ M.:X",
":X$X%X+X=X-X|.H.z.Z.D.H N j y.:X",
"f.V.S.~.I.`.Y.k.j.3.F A i 8.t.6.",
";.5.0.T.l.c.K.v.x.4.B , L i.{ k ",
"&.d.U.J.h.h.F.L.G.A.K > v ] 0 5 ",
"=.C.W.P.c.b.R..X{.[.s.u - y 2 6 ",
"O.m.].}._. X*X&X@X^.,.Q U f 8 7 ",
"$.+.2.e.!.OX/.N.u.q.W ! ..[ q 5 ",
":X$.o.T  .n.1.( s r h X.} z 9 :X",
":X@.~ %.>.) g Y e l | r.c 3 4 :X",
":X:XI R P t : ; w ` ' x 1 O :X:X",
":X:X:X= @ $ % & o # * +   :X:X:X",
":X:X:X:X:X. X X X .   :X:X:X:X:X"
};
