/* XPM */
static char *result[] = {
/* columns rows colors chars-per-pixel */
"16 16 11 1 ",
"  c #656565",
". c #B9454C",
"X c #F3626A",
"o c #CBD064",
"O c #E0E578",
"+ c #939393",
"@ c #9B9999",
"# c #B1B1B1",
"$ c gray88",
"% c #E9E9E9",
"& c None",
/* pixels */
"&&&&&&&&&&&&&&&&",
"&&&&&&&&&&&& $$$",
"&&&&&&&&&&&&&...",
"&&&&&&&&& @@@@@+",
"&&&&&&&&&&.XXX.&",
"&&&&&&&&&.XXXX.&",
"&&XOXXXXo%%%%XX.",
"&  %X%X%%X##X%% ",
"&&XOXXXXO%%%%XX.",
"&&&&&&&&&XXXXX.&",
"&&&&&&&&&&XXXX.&",
"&&&&&&&&& #####+",
"&&&&&&&&&&&&&XXX",
"&&&&&&&&&&&& $$$",
"&&&&&&&&&&&&&&&&",
"&&&&&&&&&&&&&&&&"
};
