/* XPM */
static char *result[] = {
/* columns rows colors chars-per-pixel */
"16 16 11 1 ",
"  c #656565",
". c #CE374F",
"X c #FF4D6A",
"o c #CBCC79",
"O c gray57",
"+ c #999797",
"@ c #AFAFAF",
"# c #E0E18C",
"$ c gray87",
"% c #E7E7E7",
"& c None",
/* pixels */
"&$.O&&. .&&OX$&&",
"&$.+..X%X..@X$&&",
"&$.+XXX%XXX@X$&&",
"& &+XX%X%XX@& &&",
"&&&+XX%@%XX@&&&&",
"&&&+.X%@%XX@&&&&",
"&&& &.%X%X& &&&&",
"&&&&&&o%#&&&&&&&",
"&&&&&&X%X&&&&&&&",
"&&&&&&XXX&&&&&&&",
"&&&&&&X%X&&&&&&&",
"&&&&&&XXX&&&&&&&",
"&&&&&&#%#&&&&&&&",
"&&&&&&X X&&&&&&&",
"&&&&&&& &&&&&&&&",
"&&&&&&&&&&&&&&&&"
};
