/* XPM */
static char *result[] = {
/* columns rows colors chars-per-pixel */
"16 16 11 1 ",
"  c #656565",
". c #C33F4E",
"X c #FF596A",
"o c #CBCE70",
"O c #929292",
"+ c #9A9898",
"@ c gray69",
"# c #E0E383",
"$ c #DFDFDF",
"% c gray91",
"& c None",
/* pixels */
"&&&&&&&&&&&&&&&&",
"&&&&&&&&&&&&&&&&",
"$$$ &&&&&&&&&&&&",
"XXX&&&&&&&&&&&&&",
"O@@@@@ &&&&&&&&&",
"&.XXXX&&&&&&&&&&",
"&.XXXXX&&&&&&&&&",
".XX%%%%#XXXX#X&&",
" %%X@@X%%X%X%  &",
".XX%%%%oXXXX#X&&",
"&.XXXX.&&&&&&&&&",
"&.XXX.&&&&&&&&&&",
"O+++++ &&&&&&&&&",
"...&&&&&&&&&&&&&",
"$$$ &&&&&&&&&&&&",
"&&&&&&&&&&&&&&&&"
};
